<?xml version="1.0" standalone="yes"?>

<svg version="1.1" viewBox="0.0 0.0 538.6246719160105 535.4435695538058" fill="none" stroke="none" stroke-linecap="square" stroke-miterlimit="10" xmlns="http://www.w3.org/2000/svg" xmlns:xlink="http://www.w3.org/1999/xlink"><clipPath id="p.0"><path d="m0 0l538.6247 0l0 535.44354l-538.6247 0l0 -535.44354z" clip-rule="nonzero"></path></clipPath><g clip-path="url(#p.0)"><path fill="#000000" fill-opacity="0.0" d="m0 0l538.6247 0l0 535.44354l-538.6247 0z" fill-rule="nonzero"></path><path fill="#e21e26" d="m502.9322 386.5675l0 0c5.4728394 11.62912 4.1297607 29.725464 -2.9997864 40.41925l-53.57193 80.35382l0 0c-3.4237366 5.135376 -7.7512817 7.841919 -12.030609 7.524353c-4.2793274 -0.31762695 -8.159882 -3.6333923 -10.788025 -9.2178955l-39.636505 -84.22305c-5.4728394 -11.62912 -4.1297607 -29.725433 2.9997864 -40.41925l53.57193 -80.35382c7.1295776 -10.693787 17.345825 -9.935577 22.818634 1.6935425z" fill-rule="nonzero"></path><path fill="#e21e26" d="m437.54596 250.93826l0 0c5.594513 11.571228 4.4401855 29.680115 -2.578308 40.447327l-52.737396 80.90564l0 0c-3.3703918 5.1705933 -7.669983 7.9220276 -11.952911 7.6490173c-4.2829285 -0.27301025 -8.198364 -3.5481262 -10.884949 -9.104828l-40.517944 -83.80371c-5.594513 -11.571228 -4.440155 -29.680115 2.578308 -40.447342l52.737396 -80.905624c7.018463 -10.767227 17.243347 -10.115433 22.83786 1.45578z" fill-rule="nonzero"></path><path fill="#f89c1b" d="m270.4582 265.93747l0 0c12.817322 0.9480591 27.916779 11.01059 33.725525 22.475372l43.626007 86.10449l0 0c2.7894592 5.505554 3.0195923 10.604767 0.63974 14.175903c-2.3798523 3.571106 -7.1747437 5.3215637 -13.329834 4.8663025l-92.828476 -6.866089c-12.817322 -0.94802856 -27.916748 -11.01059 -33.725525 -22.475342l-43.62599 -86.10449c-5.808777 -11.464752 -0.12721252 -19.990234 12.690094 -19.042206z" fill-rule="nonzero"></path><path fill="#f89c1b" d="m337.93112 404.78146l0 0c12.818085 0.9472656 27.918884 11.00943 33.728577 22.474487l43.634155 86.10898l0 0c2.789917 5.5056763 3.0203247 10.605225 0.64053345 14.176697c-2.3798218 3.5714722 -7.1748657 5.3223877 -13.330322 4.8674927l-92.833954 -6.8603516c-12.818085 -0.9472656 -27.918884 -11.00946 -33.728607 -22.474487l-43.634125 -86.10898c-5.8097076 -11.465057 -0.1282959 -19.991425 12.689774 -19.04419z" fill-rule="nonzero"></path><path fill="#ffd919" d="m312.86533 234.26564l0 0c-7.134186 10.690735 -23.32605 18.88675 -36.165497 18.30632l-96.45831 -4.3605957l0 0c-6.1657257 -0.2787323 -10.717972 -2.5854797 -12.655273 -6.4127655c-1.9373016 -3.8272858 -1.1009827 -8.861618 2.3249817 -13.995483l51.6689 -77.4268c7.134201 -10.690735 23.326035 -18.88675 36.165512 -18.30632l96.45831 4.3605957c12.839447 0.5804291 17.464478 9.717514 10.330261 20.408249z" fill-rule="nonzero"></path><path fill="#ffd919" d="m402.69177 104.54728l0 0c-7.1348877 10.689316 -23.32669 18.884659 -36.165405 18.30481l-96.46759 -4.3568726l0 0c-6.165344 -0.27845 -10.717102 -2.5846558 -12.6539 -6.4112625c-1.9368134 -3.8266068 -1.1000366 -8.860176 2.3262634 -13.993362l51.67404 -77.41655c7.134918 -10.689316 23.326721 -18.884659 36.165405 -18.30481l96.46759 4.3568754c12.838715 0.57984877 17.462524 9.715312 10.327637 20.404625z" fill-rule="nonzero"></path><path fill="#ffd919" d="m157.02946 223.98181l0 0c-7.134186 10.690735 -23.326035 18.88675 -36.165497 18.306305l-96.45831 -4.3605804l0 0c-6.165724 -0.27874756 -10.7179575 -2.5854797 -12.655261 -6.4127655c-1.9373035 -3.827301 -1.1009827 -8.861618 2.3249807 -13.995499l51.66889 -77.4268c7.134201 -10.69072 23.32605 -18.886742 36.165504 -18.306305l96.45832 4.360588c12.839447 0.5804367 17.464478 9.717522 10.3302765 20.408257z" fill-rule="nonzero"></path><path fill="#f89c1b" d="m118.87165 254.71385l0 0c12.818077 0.9472351 27.918892 11.009415 33.7286 22.474472l43.634125 86.10895l0 0c2.789917 5.5057373 3.0203247 10.605255 0.64053345 14.176727c-2.3797913 3.5714722 -7.1748505 5.322357 -13.330307 4.8674927l-92.83396 -6.860382c-12.818077 -0.9472351 -27.918884 -11.009399 -33.728596 -22.474457l-43.63413 -86.10898c-5.80971 -11.465057 -0.12830448 -19.99144 12.689775 -19.04419z" fill-rule="nonzero"></path><path fill="#e21e26" d="m527.55597 121.83688l0 0c5.473633 11.628662 4.1309814 29.72432 -2.9989624 40.417816l-53.581787 80.36206l0 0c-3.4239197 5.135193 -7.75177 7.8417206 -12.031525 7.52417c-4.279724 -0.31755066 -8.160767 -3.6331482 -10.789307 -9.217438l-39.64267 -84.21962c-5.4736633 -11.628662 -4.1309814 -29.724327 2.998932 -40.417816l53.581818 -80.36207c7.1299133 -10.693487 17.347168 -9.935387 22.820831 1.6932678z" fill-rule="nonzero"></path></g></svg>

